<svg xmlns="http://www.w3.org/2000/svg" version="1.1" xmlns:xlink="http://www.w3.org/1999/xlink" width="16" height="16"><svg xmlns="http://www.w3.org/2000/svg" version="1.1" xmlns:xlink="http://www.w3.org/1999/xlink" width="16" height="16"><svg id="_レイヤー_1" data-name="レイヤー 1" xmlns="http://www.w3.org/2000/svg" viewBox="0 0 16 16">
  <defs>
    <style>
      .cls-1, .cls-2 {
        fill: #fff;
      }

      .cls-2, .cls-3 {
        fill-rule: evenodd;
      }

      .cls-3 {
        fill: #242831;
      }
    </style>
  </defs>
  <g id="E98sRM.tif">
    <path class="cls-3" d="M11.07,14.58c-.27.18-.12.78-.45.91-1.37.5-3.69.53-5.06.04-.35-.1-.26-.65-.46-.9C.04,12.95-.52,3.79,3.79,1.12,6.46-.53,11.3-.06,13.24,1.95c3.13,3.26,2.26,11.19-2.17,12.63Z"></path>
  </g>
  <path class="cls-2" d="M12.12,7.17c-1.12,1.19-7.18,1.15-8.24-.28-.47-.64-1.28-2.2.45-3.78,1.39-1.28,1.33-.94,3.78-.95,2.05-.02,2.7-.08,3.72,1.16,1.01,1.23,1.27,2.82.3,3.85Z"></path>
  <g>
    <g>
      <path class="cls-2" d="M3.85,8.26c.11.11-.71,1.05-.68,2.38-.02,1.32.82,2.26.71,2.37-.07.15-1.28-.75-1.29-2.36-.02-1.62,1.17-2.53,1.25-2.38Z"></path>
      <path class="cls-1" d="M3.85,13.11s-.03,0-.04,0c-.3-.07-1.3-.97-1.3-2.47-.02-1.5.96-2.41,1.26-2.49.08-.02.13,0,.16.05.07.08.01.2-.12.45-.21.41-.57,1.11-.54,1.98-.01.87.35,1.56.57,1.97.13.25.2.37.12.45-.02.03-.06.05-.11.05ZM3.73,8.37c-.29.18-1.06,1.01-1.04,2.27,0,1.31.79,2.07,1.07,2.25-.03-.05-.06-.13-.1-.19-.21-.4-.6-1.14-.59-2.06-.03-.92.36-1.66.56-2.07.03-.07.07-.14.1-.2Z"></path>
    </g>
    <g>
      <path class="cls-2" d="M5.48,9.05c.13.06-.15.92-.13,1.98,0,1.06.29,1.92.16,1.97-.11.07-.65-.79-.65-1.97-.01-1.18.51-2.05.63-1.98Z"></path>
      <path class="cls-1" d="M5.5,13.07s-.04,0-.06-.02c-.19-.11-.64-.93-.64-2.02-.01-1.09.42-1.92.61-2.03.05-.03.09-.02.1,0,.1.05.08.22.02.62-.05.36-.12.86-.11,1.41,0,.55.08,1.05.14,1.41.06.41.09.58-.01.63,0,0-.02,0-.04,0ZM5.45,9.13c-.14.11-.54.89-.53,1.91,0,1.03.42,1.8.56,1.9,0-.06-.03-.27-.06-.48-.06-.36-.14-.86-.14-1.43,0-.56.06-1.06.12-1.43.03-.2.06-.4.05-.48ZM5.44,9.1h0s0,0,0,0h0Z"></path>
    </g>
    <g>
      <path class="cls-2" d="M12.12,8.2c-.11.11.73,1.04.71,2.37.04,1.32-.79,2.27-.68,2.38.08.15,1.27-.77,1.25-2.38,0-1.62-1.21-2.52-1.29-2.36Z"></path>
      <path class="cls-1" d="M12.19,13.08c-.06,0-.11-.03-.13-.06-.08-.1-.02-.23.11-.49.21-.41.56-1.1.54-1.96.01-.87-.35-1.55-.57-1.96-.13-.25-.2-.39-.12-.49.03-.05.09-.08.19-.06.31.07,1.32.98,1.33,2.5.02,1.51-.98,2.44-1.29,2.52-.02,0-.04,0-.06,0ZM12.32,8.4s.03.06.04.09c.21.4.61,1.15.6,2.08.03.92-.36,1.68-.57,2.08-.01.03-.03.06-.04.09.33-.27.94-1.04.93-2.17,0-1.13-.63-1.9-.96-2.16Z"></path>
    </g>
    <g>
      <path class="cls-2" d="M10.5,9.02c-.13.06.16.92.16,1.97.02,1.06-.26,1.92-.13,1.98.12.07.64-.79.63-1.98,0-1.18-.54-2.04-.66-1.97Z"></path>
      <path class="cls-1" d="M10.54,13.06s-.05,0-.06-.02c-.12-.05-.09-.23-.03-.65.05-.36.12-.85.11-1.4,0-.55-.08-1.04-.14-1.4-.07-.42-.1-.6.03-.66.03-.01.07-.03.13,0,.23.13.65,1.01.66,2.05.01,1.04-.4,1.92-.63,2.05-.03.02-.06.02-.08.02ZM10.56,9.17c0,.1.03.25.05.39.06.37.14.87.14,1.43,0,.56-.06,1.06-.12,1.43-.02.14-.04.29-.05.39.16-.22.48-.91.47-1.82,0-.92-.33-1.6-.5-1.82Z"></path>
    </g>
    <g>
      <path class="cls-1" d="M8.14,11.39c0,.88-.06,1.6-.15,1.6s-.17-.71-.17-1.6.06-1.6.15-1.6.17.71.17,1.6Z"></path>
      <path class="cls-1" d="M7.99,13.11c-.14,0-.19-.14-.24-.58-.03-.31-.05-.71-.06-1.14-.01-1.72.17-1.73.27-1.73h0c.14,0,.19.14.24.58.03.31.05.71.06,1.14,0,.35,0,1.51-.17,1.68l-.04.04h-.07s0,0,0,0ZM7.97,10.41c-.02.25-.03.59-.03.98s.02.73.04.98c.02-.25.03-.59.03-.98s-.02-.73-.04-.98Z"></path>
    </g>
  </g>
  <g>
    <path d="M6.11,3.47c-.62,0-1.12.51-1.11,1.13,0,.62.51,1.12,1.13,1.11.62,0,1.12-.51,1.11-1.13,0-.62-.51-1.12-1.13-1.11ZM6.13,5.43c-.46,0-.84-.37-.85-.83,0-.46.37-.84.83-.85.46,0,.84.37.85.83,0,.46-.37.84-.83.85Z"></path>
    <path d="M9.84,3.81c-.44,0-.79.36-.78.8,0,.44.36.79.8.78.44,0,.79-.36.78-.8,0-.44-.36-.79-.8-.78Z"></path>
  </g>
</svg></svg><style>@media (prefers-color-scheme: light) { :root { filter: none; } }
@media (prefers-color-scheme: dark) { :root { filter: none; } }
</style></svg>