<svg xmlns="http://www.w3.org/2000/svg" version="1.1" xmlns:xlink="http://www.w3.org/1999/xlink" width="1000" height="1000"><style>
    #light-icon {
      display: inline;
    }
    #dark-icon {
      display: none;
    }

    @media (prefers-color-scheme: dark) {
      #light-icon {
        display: none;
      }
      #dark-icon {
        display: inline;
      }
    }
  </style><g id="light-icon"><svg xmlns="http://www.w3.org/2000/svg" version="1.1" xmlns:xlink="http://www.w3.org/1999/xlink" width="1000" height="1000"><g><g transform="matrix(62.5,0,0,62.5,0,0)"><svg xmlns="http://www.w3.org/2000/svg" version="1.1" xmlns:xlink="http://www.w3.org/1999/xlink" width="16" height="16"><svg id="_レイヤー_1" data-name="レイヤー 1" xmlns="http://www.w3.org/2000/svg" viewBox="0 0 16 16">
  <defs>
    <style>
      .cls-1, .cls-2 {
        fill: #fff;
      }

      .cls-2, .cls-3 {
        fill-rule: evenodd;
      }

      .cls-3 {
        fill: #242831;
      }
    </style>
  </defs>
  <g id="E98sRM.tif">
    <path class="cls-3" d="M11.11,14.68c-.28.18-.13.79-.45.92-1.39.51-3.74.53-5.13.04-.35-.1-.27-.66-.47-.92C-.08,13.02-.64,3.73,3.73,1.02,6.43-.66,11.35-.18,13.32,1.86c3.18,3.31,2.29,11.35-2.2,12.82Z"></path>
  </g>
  <path class="cls-2" d="M12.18,7.16c-1.14,1.21-7.29,1.16-8.37-.29-.48-.65-1.29-2.23.46-3.83,1.41-1.3,1.35-.95,3.84-.97,2.08-.02,2.74-.08,3.77,1.18,1.02,1.24,1.29,2.86.3,3.91Z"></path>
  <g>
    <g>
      <path class="cls-2" d="M3.78,8.26c.11.11-.73,1.07-.69,2.41-.02,1.34.83,2.29.73,2.4-.07.16-1.3-.76-1.3-2.4-.02-1.64,1.19-2.57,1.27-2.42Z"></path>
      <path class="cls-1" d="M3.79,13.19s-.03,0-.04,0c-.31-.07-1.32-.98-1.32-2.51-.02-1.52.98-2.45,1.28-2.52.08-.02.13,0,.16.05.07.08.01.21-.12.46-.21.42-.57,1.12-.55,2.01-.01.89.36,1.59.58,2,.13.25.2.37.13.46-.02.03-.06.06-.11.06ZM3.67,8.38c-.3.18-1.07,1.03-1.06,2.3,0,1.33.8,2.11,1.09,2.28-.03-.06-.06-.13-.1-.19-.21-.41-.61-1.16-.6-2.09-.03-.93.36-1.69.57-2.1.04-.07.07-.14.1-.2Z"></path>
    </g>
    <g>
      <path class="cls-2" d="M5.44,9.07c.13.06-.15.93-.13,2.01,0,1.07.29,1.94.16,2-.12.07-.66-.8-.66-2-.01-1.2.52-2.08.63-2.01Z"></path>
      <path class="cls-1" d="M5.46,13.15s-.04,0-.06-.02c-.19-.11-.65-.94-.65-2.05-.01-1.11.43-1.94.62-2.06.05-.03.09-.02.11,0,.1.05.08.22.02.63-.05.37-.13.87-.12,1.43,0,.56.08,1.06.14,1.43.07.41.09.59-.01.63,0,0-.02,0-.04,0ZM5.41,9.14c-.15.12-.55.9-.54,1.94,0,1.04.43,1.82.57,1.93,0-.07-.03-.28-.06-.49-.06-.37-.14-.88-.14-1.45,0-.57.06-1.08.12-1.45.03-.2.06-.41.05-.48ZM5.4,9.12h0s0,0,0,0h0Z"></path>
    </g>
    <g>
      <path class="cls-2" d="M12.18,8.2c-.11.11.74,1.06.73,2.4.04,1.34-.8,2.3-.69,2.41.08.16,1.29-.78,1.27-2.42,0-1.64-1.23-2.55-1.3-2.4Z"></path>
      <path class="cls-1" d="M12.25,13.16c-.06,0-.11-.03-.14-.07-.09-.1-.02-.24.12-.5.21-.42.57-1.12.55-1.99.01-.88-.36-1.57-.58-1.99-.14-.26-.21-.39-.12-.49.03-.05.1-.08.19-.06.31.07,1.34,1,1.35,2.54.02,1.54-1,2.48-1.31,2.56-.02,0-.04,0-.06,0ZM12.38,8.41s.03.06.05.09c.22.41.62,1.17.61,2.11.03.94-.36,1.7-.57,2.11-.01.03-.03.06-.04.09.33-.27.95-1.06.94-2.2,0-1.14-.64-1.92-.97-2.19Z"></path>
    </g>
    <g>
      <path class="cls-2" d="M10.53,9.03c-.13.06.16.93.16,2,.02,1.07-.26,1.95-.13,2.01.12.07.65-.81.63-2.01,0-1.2-.55-2.07-.66-2Z"></path>
      <path class="cls-1" d="M10.58,13.14s-.05,0-.06-.02c-.12-.05-.09-.23-.03-.66.05-.37.12-.87.12-1.42,0-.56-.08-1.06-.14-1.42-.07-.43-.1-.61.03-.67.03-.01.07-.03.14,0,.23.13.66,1.02.67,2.08.01,1.05-.41,1.95-.64,2.09-.03.02-.06.02-.08.02ZM10.6,9.19c0,.1.03.25.05.39.06.37.14.88.14,1.45,0,.57-.06,1.08-.12,1.45-.02.14-.04.29-.05.39.16-.22.49-.92.48-1.85,0-.93-.34-1.63-.5-1.84Z"></path>
    </g>
    <g>
      <path class="cls-1" d="M8.14,11.44c0,.9-.06,1.62-.15,1.62s-.17-.73-.18-1.62.06-1.62.15-1.62.17.73.18,1.62Z"></path>
      <path class="cls-1" d="M7.99,13.19c-.14,0-.2-.14-.25-.59-.03-.31-.05-.72-.06-1.16-.01-1.75.18-1.75.28-1.75h0c.14,0,.2.14.25.59.03.31.05.72.06,1.16,0,.36,0,1.53-.17,1.71l-.04.04h-.07s0,0,0,0ZM7.97,10.45c-.02.26-.03.6-.03.99s.02.74.04.99c.02-.26.03-.6.03-.99s-.02-.74-.04-.99Z"></path>
    </g>
  </g>
  <g>
    <path d="M6.08,3.41c-.63,0-1.13.52-1.13,1.15,0,.63.52,1.13,1.15,1.13.63,0,1.13-.52,1.13-1.15,0-.63-.52-1.13-1.15-1.13ZM6.1,5.4c-.47,0-.86-.38-.86-.85,0-.47.38-.86.85-.86.47,0,.86.38.86.85,0,.47-.38.86-.85.86Z"></path>
    <path d="M9.87,3.75c-.44,0-.8.37-.8.81,0,.44.37.8.81.8.44,0,.8-.37.8-.81,0-.44-.37-.8-.81-.8Z"></path>
  </g>
</svg></svg></g></g></svg></g><g id="dark-icon"><svg xmlns="http://www.w3.org/2000/svg" version="1.1" xmlns:xlink="http://www.w3.org/1999/xlink" width="1000" height="1000"><g clip-path="url(#SvgjsClipPath1133)"><rect width="1000" height="1000" fill="#ffffff"></rect><g transform="matrix(43.75,0,0,43.75,150,150)"><svg xmlns="http://www.w3.org/2000/svg" version="1.1" xmlns:xlink="http://www.w3.org/1999/xlink" width="16" height="16"><svg id="_レイヤー_1" data-name="レイヤー 1" xmlns="http://www.w3.org/2000/svg" viewBox="0 0 16 16">
  <defs>
    <style>
      .cls-1, .cls-2 {
        fill: #fff;
      }

      .cls-2, .cls-3 {
        fill-rule: evenodd;
      }

      .cls-3 {
        fill: #242831;
      }
    </style>
  <clipPath id="SvgjsClipPath1133"><rect width="1000" height="1000" x="0" y="0" rx="150" ry="150"></rect></clipPath></defs>
  <g id="E98sRM.tif">
    <path class="cls-3" d="M11.11,14.68c-.28.18-.13.79-.45.92-1.39.51-3.74.53-5.13.04-.35-.1-.27-.66-.47-.92C-.08,13.02-.64,3.73,3.73,1.02,6.43-.66,11.35-.18,13.32,1.86c3.18,3.31,2.29,11.35-2.2,12.82Z"></path>
  </g>
  <path class="cls-2" d="M12.18,7.16c-1.14,1.21-7.29,1.16-8.37-.29-.48-.65-1.29-2.23.46-3.83,1.41-1.3,1.35-.95,3.84-.97,2.08-.02,2.74-.08,3.77,1.18,1.02,1.24,1.29,2.86.3,3.91Z"></path>
  <g>
    <g>
      <path class="cls-2" d="M3.78,8.26c.11.11-.73,1.07-.69,2.41-.02,1.34.83,2.29.73,2.4-.07.16-1.3-.76-1.3-2.4-.02-1.64,1.19-2.57,1.27-2.42Z"></path>
      <path class="cls-1" d="M3.79,13.19s-.03,0-.04,0c-.31-.07-1.32-.98-1.32-2.51-.02-1.52.98-2.45,1.28-2.52.08-.02.13,0,.16.05.07.08.01.21-.12.46-.21.42-.57,1.12-.55,2.01-.01.89.36,1.59.58,2,.13.25.2.37.13.46-.02.03-.06.06-.11.06ZM3.67,8.38c-.3.18-1.07,1.03-1.06,2.3,0,1.33.8,2.11,1.09,2.28-.03-.06-.06-.13-.1-.19-.21-.41-.61-1.16-.6-2.09-.03-.93.36-1.69.57-2.1.04-.07.07-.14.1-.2Z"></path>
    </g>
    <g>
      <path class="cls-2" d="M5.44,9.07c.13.06-.15.93-.13,2.01,0,1.07.29,1.94.16,2-.12.07-.66-.8-.66-2-.01-1.2.52-2.08.63-2.01Z"></path>
      <path class="cls-1" d="M5.46,13.15s-.04,0-.06-.02c-.19-.11-.65-.94-.65-2.05-.01-1.11.43-1.94.62-2.06.05-.03.09-.02.11,0,.1.05.08.22.02.63-.05.37-.13.87-.12,1.43,0,.56.08,1.06.14,1.43.07.41.09.59-.01.63,0,0-.02,0-.04,0ZM5.41,9.14c-.15.12-.55.9-.54,1.94,0,1.04.43,1.82.57,1.93,0-.07-.03-.28-.06-.49-.06-.37-.14-.88-.14-1.45,0-.57.06-1.08.12-1.45.03-.2.06-.41.05-.48ZM5.4,9.12h0s0,0,0,0h0Z"></path>
    </g>
    <g>
      <path class="cls-2" d="M12.18,8.2c-.11.11.74,1.06.73,2.4.04,1.34-.8,2.3-.69,2.41.08.16,1.29-.78,1.27-2.42,0-1.64-1.23-2.55-1.3-2.4Z"></path>
      <path class="cls-1" d="M12.25,13.16c-.06,0-.11-.03-.14-.07-.09-.1-.02-.24.12-.5.21-.42.57-1.12.55-1.99.01-.88-.36-1.57-.58-1.99-.14-.26-.21-.39-.12-.49.03-.05.1-.08.19-.06.31.07,1.34,1,1.35,2.54.02,1.54-1,2.48-1.31,2.56-.02,0-.04,0-.06,0ZM12.38,8.41s.03.06.05.09c.22.41.62,1.17.61,2.11.03.94-.36,1.7-.57,2.11-.01.03-.03.06-.04.09.33-.27.95-1.06.94-2.2,0-1.14-.64-1.92-.97-2.19Z"></path>
    </g>
    <g>
      <path class="cls-2" d="M10.53,9.03c-.13.06.16.93.16,2,.02,1.07-.26,1.95-.13,2.01.12.07.65-.81.63-2.01,0-1.2-.55-2.07-.66-2Z"></path>
      <path class="cls-1" d="M10.58,13.14s-.05,0-.06-.02c-.12-.05-.09-.23-.03-.66.05-.37.12-.87.12-1.42,0-.56-.08-1.06-.14-1.42-.07-.43-.1-.61.03-.67.03-.01.07-.03.14,0,.23.13.66,1.02.67,2.08.01,1.05-.41,1.95-.64,2.09-.03.02-.06.02-.08.02ZM10.6,9.19c0,.1.03.25.05.39.06.37.14.88.14,1.45,0,.57-.06,1.08-.12,1.45-.02.14-.04.29-.05.39.16-.22.49-.92.48-1.85,0-.93-.34-1.63-.5-1.84Z"></path>
    </g>
    <g>
      <path class="cls-1" d="M8.14,11.44c0,.9-.06,1.62-.15,1.62s-.17-.73-.18-1.62.06-1.62.15-1.62.17.73.18,1.62Z"></path>
      <path class="cls-1" d="M7.99,13.19c-.14,0-.2-.14-.25-.59-.03-.31-.05-.72-.06-1.16-.01-1.75.18-1.75.28-1.75h0c.14,0,.2.14.25.59.03.31.05.72.06,1.16,0,.36,0,1.53-.17,1.71l-.04.04h-.07s0,0,0,0ZM7.97,10.45c-.02.26-.03.6-.03.99s.02.74.04.99c.02-.26.03-.6.03-.99s-.02-.74-.04-.99Z"></path>
    </g>
  </g>
  <g>
    <path d="M6.08,3.41c-.63,0-1.13.52-1.13,1.15,0,.63.52,1.13,1.15,1.13.63,0,1.13-.52,1.13-1.15,0-.63-.52-1.13-1.15-1.13ZM6.1,5.4c-.47,0-.86-.38-.86-.85,0-.47.38-.86.85-.86.47,0,.86.38.86.85,0,.47-.38.86-.85.86Z"></path>
    <path d="M9.87,3.75c-.44,0-.8.37-.8.81,0,.44.37.8.81.8.44,0,.8-.37.8-.81,0-.44-.37-.8-.81-.8Z"></path>
  </g>
</svg></svg></g></g></svg></g></svg>