<svg xmlns="http://www.w3.org/2000/svg" viewBox="0 0 24 24"><svg xmlns="http://www.w3.org/2000/svg" width="16" height="16" transform="translate(.834 .833)scale(1.39575)"><svg xmlns="http://www.w3.org/2000/svg" data-name="レイヤー 1" viewBox="0 0 16 16"><path d="M11.07 14.58c-.27.18-.12.78-.45.91-1.37.5-3.69.53-5.06.04-.35-.1-.26-.65-.46-.9C.04 12.95-.52 3.79 3.79 1.12c2.67-1.65 7.51-1.18 9.45.83 3.13 3.26 2.26 11.19-2.17 12.63" style="fill-rule:evenodd;fill:#242831"/><path d="M12.12 7.17C11 8.36 4.94 8.32 3.88 6.89c-.47-.64-1.28-2.2.45-3.78 1.39-1.28 1.33-.94 3.78-.95 2.05-.02 2.7-.08 3.72 1.16 1.01 1.23 1.27 2.82.3 3.85ZM3.85 8.26c.11.11-.71 1.05-.68 2.38-.02 1.32.82 2.26.71 2.37-.07.15-1.28-.75-1.29-2.36-.02-1.62 1.17-2.53 1.25-2.38Z" class="cls-2" style="fill:#fff;fill-rule:evenodd"/><path d="M3.85 13.11h-.04c-.3-.07-1.3-.97-1.3-2.47-.02-1.5.96-2.41 1.26-2.49.08-.02.13 0 .16.05.07.08.01.2-.12.45-.21.41-.57 1.11-.54 1.98-.01.87.35 1.56.57 1.97.13.25.2.37.12.45-.02.03-.06.05-.11.05Zm-.12-4.74c-.29.18-1.06 1.01-1.04 2.27 0 1.31.79 2.07 1.07 2.25-.03-.05-.06-.13-.1-.19-.21-.4-.6-1.14-.59-2.06-.03-.92.36-1.66.56-2.07.03-.07.07-.14.1-.2" class="cls-1" style="fill:#fff"/><path d="M5.48 9.05c.13.06-.15.92-.13 1.98 0 1.06.29 1.92.16 1.97-.11.07-.65-.79-.65-1.97-.01-1.18.51-2.05.63-1.98Z" class="cls-2" style="fill:#fff;fill-rule:evenodd"/><path d="M5.5 13.07s-.04 0-.06-.02c-.19-.11-.64-.93-.64-2.02-.01-1.09.42-1.92.61-2.03.05-.03.09-.02.1 0 .1.05.08.22.02.62-.05.36-.12.86-.11 1.41 0 .55.08 1.05.14 1.41.06.41.09.58-.01.63h-.04Zm-.05-3.94c-.14.11-.54.89-.53 1.91 0 1.03.42 1.8.56 1.9 0-.06-.03-.27-.06-.48-.06-.36-.14-.86-.14-1.43A9 9 0 0 1 5.4 9.6c.03-.2.06-.4.05-.48Zm-.01-.03" class="cls-1" style="fill:#fff"/><path d="M12.12 8.2c-.11.11.73 1.04.71 2.37.04 1.32-.79 2.27-.68 2.38.08.15 1.27-.77 1.25-2.38 0-1.62-1.21-2.52-1.29-2.36Z" class="cls-2" style="fill:#fff;fill-rule:evenodd"/><path d="M12.19 13.08c-.06 0-.11-.03-.13-.06-.08-.1-.02-.23.11-.49.21-.41.56-1.1.54-1.96.01-.87-.35-1.55-.57-1.96-.13-.25-.2-.39-.12-.49.03-.05.09-.08.19-.06.31.07 1.32.98 1.33 2.5.02 1.51-.98 2.44-1.29 2.52zm.13-4.68s.03.06.04.09c.21.4.61 1.15.6 2.08.03.92-.36 1.68-.57 2.08-.01.03-.03.06-.04.09.33-.27.94-1.04.93-2.17 0-1.13-.63-1.9-.96-2.16Z" class="cls-1" style="fill:#fff"/><path d="M10.5 9.02c-.13.06.16.92.16 1.97.02 1.06-.26 1.92-.13 1.98.12.07.64-.79.63-1.98 0-1.18-.54-2.04-.66-1.97" class="cls-2" style="fill:#fff;fill-rule:evenodd"/><path d="M10.54 13.06s-.05 0-.06-.02c-.12-.05-.09-.23-.03-.65.05-.36.12-.85.11-1.4 0-.55-.08-1.04-.14-1.4-.07-.42-.1-.6.03-.66.03-.01.07-.03.13 0 .23.13.65 1.01.66 2.05s-.4 1.92-.63 2.05c-.03.02-.06.02-.08.02Zm.02-3.89c0 .1.03.25.05.39.06.37.14.87.14 1.43a9 9 0 0 1-.12 1.43c-.02.14-.04.29-.05.39.16-.22.48-.91.47-1.82 0-.92-.33-1.6-.5-1.82Zm-2.42 2.22c0 .88-.06 1.6-.15 1.6s-.17-.71-.17-1.6.06-1.6.15-1.6.17.71.17 1.6" class="cls-1" style="fill:#fff"/><path d="M7.99 13.11c-.14 0-.19-.14-.24-.58-.03-.31-.05-.71-.06-1.14-.01-1.72.17-1.73.27-1.73.14 0 .19.14.24.58.03.31.05.71.06 1.14 0 .35 0 1.51-.17 1.68l-.04.04h-.07Zm-.02-2.7c-.02.25-.03.59-.03.98s.02.73.04.98c.02-.25.03-.59.03-.98s-.02-.73-.04-.98" class="cls-1" style="fill:#fff"/><path d="M6.11 3.47c-.62 0-1.12.51-1.11 1.13 0 .62.51 1.12 1.13 1.11.62 0 1.12-.51 1.11-1.13 0-.62-.51-1.12-1.13-1.11m.02 1.96c-.46 0-.84-.37-.85-.83 0-.46.37-.84.83-.85.46 0 .84.37.85.83 0 .46-.37.84-.83.85m3.71-1.62a.78.78 0 0 0-.78.8c0 .44.36.79.8.78.44 0 .79-.36.78-.8a.78.78 0 0 0-.8-.78"/></svg></svg></svg>